<?xml version="1.0" standalone="no"?>
<!DOCTYPE svg PUBLIC "-//W3C//DTD SVG 20010904//EN" "http://www.w3.org/TR/2001/REC-SVG-20010904/DTD/svg10.dtd">
<!-- Created using Krita: https://krita.org -->
<svg xmlns="http://www.w3.org/2000/svg" 
    xmlns:xlink="http://www.w3.org/1999/xlink"
    xmlns:krita="http://krita.org/namespaces/svg/krita"
    xmlns:sodipodi="http://sodipodi.sourceforge.net/DTD/sodipodi-0.dtd"
    width="11.52pt"
    height="11.52pt"
    viewBox="0 0 11.52 11.52">
<defs/>
<path id="shape0" transform="matrix(0.24 0 0 0.24 1.92 1.44)" fill="#6e6b9d" stroke-opacity="0" stroke="#000000" stroke-width="0" stroke-linecap="square" stroke-linejoin="bevel" d="M0 36L0 3C0 2.2 0.3 1.5 0.9 0.9C1.5 0.3 2.2 0 3 0L16.45 0C17.25 0 17.95 0.3 18.55 0.9C19.15 1.5 19.45 2.2 19.45 3L19.45 17.4L22.7 17.4C23.4 17.4 23.9917 17.6417 24.475 18.125C24.9583 18.6083 25.2 19.2 25.2 19.9L25.2 30.85C25.2 31.5833 25.4583 32.1917 25.975 32.675C26.4917 33.1583 27.1167 33.4 27.85 33.4C28.5833 33.4 29.2083 33.1583 29.725 32.675C30.2417 32.1917 30.5 31.5833 30.5 30.85L30.5 16.1C30.1333 16.3 29.75 16.45 29.35 16.55C28.95 16.65 28.55 16.7 28.15 16.7C26.85 16.7 25.7417 16.2417 24.825 15.325C23.9083 14.4083 23.45 13.3 23.45 12C23.45 10.9333 23.75 9.98333 24.35 9.15C24.95 8.31667 25.75 7.76667 26.75 7.5L22 2.75L23.8 1L31.45 8.65C31.9167 9.11667 32.2917 9.625 32.575 10.175C32.8583 10.725 33 11.3333 33 12L33 30.85C33 32.2833 32.5 33.5 31.5 34.5C30.5 35.5 29.2833 36 27.85 36C26.4167 36 25.2 35.5 24.2 34.5C23.2 33.5 22.7 32.2833 22.7 30.85L22.7 19.9L19.45 19.9L19.45 36ZM3 14.4L16.45 14.4L16.45 3L3 3ZM28.15 14.2C28.75 14.2 29.2667 13.9833 29.7 13.55C30.1333 13.1167 30.35 12.6 30.35 12C30.35 11.4 30.1333 10.8833 29.7 10.45C29.2667 10.0167 28.75 9.8 28.15 9.8C27.55 9.8 27.0333 10.0167 26.6 10.45C26.1667 10.8833 25.95 11.4 25.95 12C25.95 12.6 26.1667 13.1167 26.6 13.55C27.0333 13.9833 27.55 14.2 28.15 14.2ZM3 33L16.45 33L16.45 17.4L3 17.4ZM16.45 33L3 33Z" sodipodi:nodetypes="ccccccccccccccccccccccccccccccccccccccccccccccccccccccccccc"/>
</svg>
